<?xml version="1.0" encoding="utf-8"?>
<!-- Generator: Adobe Illustrator 26.2.1, SVG Export Plug-In . SVG Version: 6.00 Build 0)  -->
<svg version="1.1" id="Ebene_1" xmlns="http://www.w3.org/2000/svg" xmlns:xlink="http://www.w3.org/1999/xlink" x="0px" y="0px"
	 width="73px" height="50px" viewBox="0 0 73 50" style="enable-background:new 0 0 73 50;" xml:space="preserve">
<style type="text/css">
	.st0{fill-rule:evenodd;clip-rule:evenodd;fill:#FF6C3F;}
</style>
<path id="Bildmarke" class="st0" d="M65.4,4.8c-4.5-3.7-10.2-5.2-17.1-4.7c-3.3,0.2-6.6,0.5-10,0.8c-0.4,0-0.7,0.4-0.7,0.7v9.1
	c0,0.4,0.4,0.8,0.8,0.7c3.1-0.3,6.1-0.5,9.2-0.7H48c7.7-0.5,11.5,2.3,11.5,8c0,6-3.8,9-11.5,9.6c-3.2,0.2-6.5,0.5-9.7,0.8
	c-0.4,0-0.7,0.4-0.7,0.7V39c0,0.4,0.4,0.8,0.8,0.7c2.2-0.2,4.3-0.4,6.5-0.5c0.9-0.1,1.1,0.4,1.5,1.1c0.1,0.2,0.2,0.3,0.3,0.5
	c0.1,0.1,0.1,0.2,0.2,0.3c0.6,0.9,1.2,1.9,2.1,3c1.5,1.7,3.3,3.4,6.4,4.7c3.2,1.3,6.3,1.7,7.3,0.5c0.7-0.8-0.2-2.7-1.1-4.5
	c-0.3-0.7-0.7-1.4-0.9-2c-0.7-2.1-1.3-3.6-1.3-5.2l0,0c8-2.9,12.5-8.6,12.5-17.4C72.1,13.7,69.8,8.5,65.4,4.8z M32.2,11.4V2.3
	c0-0.4-0.4-0.8-0.8-0.7l-12.7,1C13.4,3,9,5,5.5,8.6c-2.6,2.7-4.3,5.8-5,9.4v0.1c-0.3,1.4-0.4,3-0.4,4.6c0,5.9,1.7,10.6,5.3,14
	c3.4,3.3,7.6,4.9,12.9,4.7h0.1c0.1,0,0.2,0,0.3,0c4.3-0.3,8.6-0.6,12.9-1c0.4,0,0.7-0.4,0.7-0.7v-9.1c0-0.4-0.4-0.8-0.8-0.7
	l-9.9,0.8C14.5,31,11,28.1,11,22.4c0-5.5,3.5-8.6,10.6-9.4l10-0.8C31.9,12.1,32.2,11.8,32.2,11.4z"/>
</svg>
